<?xml version="1.0" encoding="utf-8"?>
<!-- Generator: Adobe Illustrator 15.1.0, SVG Export Plug-In . SVG Version: 6.00 Build 0)  -->
<!DOCTYPE svg PUBLIC "-//W3C//DTD SVG 1.1//EN" "http://www.w3.org/Graphics/SVG/1.1/DTD/svg11.dtd">
<svg version="1.1" id="Layer_1" xmlns="http://www.w3.org/2000/svg" xmlns:xlink="http://www.w3.org/1999/xlink" x="0px" y="0px"
	 width="70px" height="70px" viewBox="0 0 70 70" enable-background="new 0 0 70 70" xml:space="preserve">
<rect fill="#EF3F3F" width="70" height="70"/>
<g>
	<path fill="#FFFFFF" d="M28.063,28.143c-0.109,0.109-0.342,0.164-0.698,0.164h-1.248c-0.356,0-0.594-0.054-0.713-0.164
		c-0.119-0.108-0.178-0.341-0.178-0.698v-2.317h-2.704v2.733c0,1.743,0.921,2.614,2.763,2.614h2.882
		c1.862,0,2.793-0.871,2.793-2.614v-5.347c0-1.743-0.911-2.614-2.733-2.614h-2.169c-0.356,0-0.594-0.054-0.713-0.164
		c-0.119-0.108-0.178-0.342-0.178-0.698v-4.129c0-0.356,0.06-0.589,0.178-0.698c0.119-0.108,0.356-0.163,0.713-0.163h1.248
		c0.357,0,0.594,0.055,0.713,0.163c0.119,0.109,0.178,0.342,0.178,0.698v2.317H30.9v-2.733c0-1.743-0.921-2.614-2.763-2.614h-2.911
		c-1.842,0-2.763,0.872-2.763,2.614v4.902c0,1.763,0.901,2.644,2.703,2.644h2.198c0.356,0,0.589,0.055,0.698,0.164
		c0.108,0.109,0.163,0.342,0.163,0.698v4.545C28.227,27.801,28.172,28.035,28.063,28.143z"/>
	<path fill="#FFFFFF" d="M42.071,14.195l1.693,9.804h-3.238L42.071,14.195z M47.567,30.475l-3.535-18.597h-3.892l-3.297,18.597
		h2.674l0.683-4.308h3.921l0.743,4.308H47.567z"/>
	<path fill="#FFFFFF" d="M31.138,36.773c0-1.742-0.921-2.614-2.763-2.614h-3.179c-1.842,0-2.763,0.872-2.763,2.614v13.369
		c0,1.763,0.921,2.644,2.763,2.644h3.179c1.842,0,2.763-0.881,2.763-2.644V43.19h-4.189v2.08h1.486v4.545
		c0,0.356-0.059,0.59-0.178,0.698c-0.119,0.109-0.356,0.164-0.713,0.164h-1.515c-0.356,0-0.594-0.055-0.713-0.164
		c-0.119-0.108-0.178-0.342-0.178-0.698V37.129c0-0.356,0.059-0.589,0.178-0.698c0.119-0.108,0.357-0.164,0.713-0.164h1.515
		c0.356,0,0.594,0.055,0.713,0.164c0.119,0.109,0.178,0.342,0.178,0.698v2.466h2.703V36.773z"/>
	<path fill="#FFFFFF" d="M41.031,44.23h4.278v-2.168h-4.278v-5.734H46.2v-2.168h-7.873v18.597h8.081v-2.168h-5.377V44.23z"/>
	<path fill-rule="evenodd" clip-rule="evenodd" fill="#FFFFFF" d="M22.597,55.746h23.767v2.376H22.597V55.746z"/>
</g>
</svg>
